<svg width="17" height="16" viewBox="0 0 17 16" fill="none" xmlns="http://www.w3.org/2000/svg">
<path d="M10.2222 16C9.48148 16 8.85185 15.7407 8.33333 15.2222C7.81482 14.7037 7.55556 14.0741 7.55556 13.3333C7.55556 12.5926 7.81482 11.963 8.33333 11.4444C8.85185 10.9259 9.48148 10.6667 10.2222 10.6667C10.963 10.6667 11.5926 10.9259 12.1111 11.4444C12.6296 11.963 12.8889 12.5926 12.8889 13.3333C12.8889 14.0741 12.6296 14.7037 12.1111 15.2222C11.5926 15.7407 10.963 16 10.2222 16ZM10.2222 14.2222C10.4741 14.2222 10.6852 14.137 10.8556 13.9667C11.0259 13.7963 11.1111 13.5852 11.1111 13.3333C11.1111 13.0815 11.0259 12.8704 10.8556 12.7C10.6852 12.5296 10.4741 12.4444 10.2222 12.4444C9.97037 12.4444 9.75926 12.5296 9.58889 12.7C9.41852 12.8704 9.33333 13.0815 9.33333 13.3333C9.33333 13.5852 9.41852 13.7963 9.58889 13.9667C9.75926 14.137 9.97037 14.2222 10.2222 14.2222ZM12 9.77778C10.637 9.77778 9.48148 9.3037 8.53333 8.35556C7.58519 7.40741 7.11111 6.25185 7.11111 4.88889C7.11111 3.52593 7.58519 2.37037 8.53333 1.42222C9.48148 0.474074 10.637 0 12 0C13.363 0 14.5185 0.474074 15.4667 1.42222C16.4148 2.37037 16.8889 3.52593 16.8889 4.88889C16.8889 6.25185 16.4148 7.40741 15.4667 8.35556C14.5185 9.3037 13.363 9.77778 12 9.77778ZM12 8C12.8741 8 13.6111 7.7 14.2111 7.1C14.8111 6.5 15.1111 5.76296 15.1111 4.88889C15.1111 4.01481 14.8111 3.27778 14.2111 2.67778C13.6111 2.07778 12.8741 1.77778 12 1.77778C11.1259 1.77778 10.3889 2.07778 9.78889 2.67778C9.18889 3.27778 8.88889 4.01481 8.88889 4.88889C8.88889 5.76296 9.18889 6.5 9.78889 7.1C10.3889 7.7 11.1259 8 12 8ZM3.55556 13.3333C2.57778 13.3333 1.74074 12.9852 1.04444 12.2889C0.348148 11.5926 0 10.7556 0 9.77778C0 8.8 0.348148 7.96296 1.04444 7.26667C1.74074 6.57037 2.57778 6.22222 3.55556 6.22222C4.53333 6.22222 5.37037 6.57037 6.06667 7.26667C6.76296 7.96296 7.11111 8.8 7.11111 9.77778C7.11111 10.7556 6.76296 11.5926 6.06667 12.2889C5.37037 12.9852 4.53333 13.3333 3.55556 13.3333ZM3.55556 11.5556C4.04444 11.5556 4.46296 11.3815 4.81111 11.0333C5.15926 10.6852 5.33333 10.2667 5.33333 9.77778C5.33333 9.28889 5.15926 8.87037 4.81111 8.52222C4.46296 8.17407 4.04444 8 3.55556 8C3.06667 8 2.64815 8.17407 2.3 8.52222C1.95185 8.87037 1.77778 9.28889 1.77778 9.77778C1.77778 10.2667 1.95185 10.6852 2.3 11.0333C2.64815 11.3815 3.06667 11.5556 3.55556 11.5556Z" fill="#353535"/>
</svg>
