<svg width="16" height="17" viewBox="0 0 16 17" fill="none" xmlns="http://www.w3.org/2000/svg">
<path d="M7.28 14.2666H8.68V13.2666C9.34667 13.1466 9.92 12.8866 10.4 12.4866C10.88 12.0866 11.12 11.4933 11.12 10.7066C11.12 10.1466 10.96 9.63329 10.64 9.16663C10.32 8.69996 9.68 8.29329 8.72 7.94663C7.92 7.67996 7.36667 7.44663 7.06 7.24663C6.75333 7.04663 6.6 6.77329 6.6 6.42663C6.6 6.07996 6.72333 5.80663 6.97 5.60663C7.21667 5.40663 7.57333 5.30663 8.04 5.30663C8.46667 5.30663 8.8 5.40996 9.04 5.61663C9.28 5.82329 9.45333 6.07996 9.56 6.38663L10.84 5.86663C10.6933 5.39996 10.4233 4.99329 10.03 4.64663C9.63667 4.29996 9.2 4.10663 8.72 4.06663V3.06663H7.32V4.06663C6.65333 4.21329 6.13333 4.50663 5.76 4.94663C5.38667 5.38663 5.2 5.87996 5.2 6.42663C5.2 7.05329 5.38333 7.55996 5.75 7.94663C6.11667 8.33329 6.69333 8.66663 7.48 8.94663C8.32 9.25329 8.90333 9.52663 9.23 9.76663C9.55667 10.0066 9.72 10.32 9.72 10.7066C9.72 11.1466 9.56333 11.47 9.25 11.6766C8.93667 11.8833 8.56 11.9866 8.12 11.9866C7.68 11.9866 7.29 11.85 6.95 11.5766C6.61 11.3033 6.36 10.8933 6.2 10.3466L4.88 10.8666C5.06667 11.5066 5.35667 12.0233 5.75 12.4166C6.14333 12.81 6.65333 13.08 7.28 13.2266V14.2666ZM8 16.6666C6.89333 16.6666 5.85333 16.4566 4.88 16.0366C3.90667 15.6166 3.06 15.0466 2.34 14.3266C1.62 13.6066 1.05 12.76 0.63 11.7866C0.21 10.8133 0 9.77329 0 8.66663C0 7.55996 0.21 6.51996 0.63 5.54663C1.05 4.57329 1.62 3.72663 2.34 3.00663C3.06 2.28663 3.90667 1.71663 4.88 1.29663C5.85333 0.876626 6.89333 0.666626 8 0.666626C9.10667 0.666626 10.1467 0.876626 11.12 1.29663C12.0933 1.71663 12.94 2.28663 13.66 3.00663C14.38 3.72663 14.95 4.57329 15.37 5.54663C15.79 6.51996 16 7.55996 16 8.66663C16 9.77329 15.79 10.8133 15.37 11.7866C14.95 12.76 14.38 13.6066 13.66 14.3266C12.94 15.0466 12.0933 15.6166 11.12 16.0366C10.1467 16.4566 9.10667 16.6666 8 16.6666ZM8 15.0666C9.78667 15.0666 11.3 14.4466 12.54 13.2066C13.78 11.9666 14.4 10.4533 14.4 8.66663C14.4 6.87996 13.78 5.36663 12.54 4.12663C11.3 2.88663 9.78667 2.26663 8 2.26663C6.21333 2.26663 4.7 2.88663 3.46 4.12663C2.22 5.36663 1.6 6.87996 1.6 8.66663C1.6 10.4533 2.22 11.9666 3.46 13.2066C4.7 14.4466 6.21333 15.0666 8 15.0666Z" fill="#353535"/>
</svg>
