<svg width="16" height="16" viewBox="0 0 16 16" fill="none" xmlns="http://www.w3.org/2000/svg">
<path d="M7.26941 16V14.5388C5.74734 14.3683 4.4414 13.7382 3.3516 12.6484C2.2618 11.5586 1.63166 10.2527 1.46119 8.73059H0V7.26941H1.46119C1.63166 5.74734 2.2618 4.4414 3.3516 3.3516C4.4414 2.2618 5.74734 1.63166 7.26941 1.46119V0H8.73059V1.46119C10.2527 1.63166 11.5586 2.2618 12.6484 3.3516C13.7382 4.4414 14.3683 5.74734 14.5388 7.26941H16V8.73059H14.5388C14.3683 10.2527 13.7382 11.5586 12.6484 12.6484C11.5586 13.7382 10.2527 14.3683 8.73059 14.5388V16H7.26941ZM8 13.1142C9.41248 13.1142 10.618 12.6149 11.6164 11.6164C12.6149 10.618 13.1142 9.41248 13.1142 8C13.1142 6.58752 12.6149 5.38204 11.6164 4.38356C10.618 3.38508 9.41248 2.88584 8 2.88584C6.58752 2.88584 5.38204 3.38508 4.38356 4.38356C3.38508 5.38204 2.88584 6.58752 2.88584 8C2.88584 9.41248 3.38508 10.618 4.38356 11.6164C5.38204 12.6149 6.58752 13.1142 8 13.1142ZM8 10.9224C7.19635 10.9224 6.50837 10.6362 5.93607 10.0639C5.36377 9.49163 5.07763 8.80365 5.07763 8C5.07763 7.19635 5.36377 6.50837 5.93607 5.93607C6.50837 5.36377 7.19635 5.07763 8 5.07763C8.80365 5.07763 9.49163 5.36377 10.0639 5.93607C10.6362 6.50837 10.9224 7.19635 10.9224 8C10.9224 8.80365 10.6362 9.49163 10.0639 10.0639C9.49163 10.6362 8.80365 10.9224 8 10.9224ZM8 9.46119C8.40183 9.46119 8.74581 9.31811 9.03196 9.03196C9.31811 8.74581 9.46119 8.40183 9.46119 8C9.46119 7.59817 9.31811 7.25419 9.03196 6.96804C8.74581 6.68189 8.40183 6.53881 8 6.53881C7.59817 6.53881 7.25419 6.68189 6.96804 6.96804C6.68189 7.25419 6.53881 7.59817 6.53881 8C6.53881 8.40183 6.68189 8.74581 6.96804 9.03196C7.25419 9.31811 7.59817 9.46119 8 9.46119Z" fill="#353535"/>
</svg>
