<svg width="12" height="16" viewBox="0 0 12 16" fill="none" xmlns="http://www.w3.org/2000/svg">
<path d="M5.6 16C4.18667 16 3.03333 15.7767 2.14 15.33C1.24667 14.8833 0.8 14.3067 0.8 13.6C0.8 13.28 0.896667 12.9833 1.09 12.71C1.28333 12.4367 1.55333 12.2 1.9 12L3.16 13.18C3.04 13.2333 2.91 13.2933 2.77 13.36C2.63 13.4267 2.52 13.5067 2.44 13.6C2.61333 13.8133 3.01333 14 3.64 14.16C4.26667 14.32 4.92 14.4 5.6 14.4C6.28 14.4 6.93667 14.32 7.57 14.16C8.20333 14 8.60667 13.8133 8.78 13.6C8.68667 13.4933 8.56667 13.4067 8.42 13.34C8.27333 13.2733 8.13333 13.2133 8 13.16L9.24 11.96C9.61333 12.1733 9.9 12.4167 10.1 12.69C10.3 12.9633 10.4 13.2667 10.4 13.6C10.4 14.3067 9.95333 14.8833 9.06 15.33C8.16667 15.7767 7.01333 16 5.6 16ZM5.62 11.6C6.94 10.6267 7.93333 9.65 8.6 8.67C9.26667 7.69 9.6 6.70667 9.6 5.72C9.6 4.36 9.16667 3.33333 8.3 2.64C7.43333 1.94667 6.53333 1.6 5.6 1.6C4.66667 1.6 3.76667 1.94667 2.9 2.64C2.03333 3.33333 1.6 4.36 1.6 5.72C1.6 6.61333 1.92667 7.54333 2.58 8.51C3.23333 9.47667 4.24667 10.5067 5.62 11.6ZM5.6 13.6C3.72 12.2133 2.31667 10.8667 1.39 9.56C0.463333 8.25333 0 6.97333 0 5.72C0 4.77333 0.17 3.94333 0.51 3.23C0.85 2.51667 1.28667 1.92 1.82 1.44C2.35333 0.96 2.95333 0.6 3.62 0.36C4.28667 0.12 4.94667 0 5.6 0C6.25333 0 6.91333 0.12 7.58 0.36C8.24667 0.6 8.84667 0.96 9.38 1.44C9.91333 1.92 10.35 2.51667 10.69 3.23C11.03 3.94333 11.2 4.77333 11.2 5.72C11.2 6.97333 10.7367 8.25333 9.81 9.56C8.88333 10.8667 7.48 12.2133 5.6 13.6ZM5.6 7.2C6.04 7.2 6.41667 7.04333 6.73 6.73C7.04333 6.41667 7.2 6.04 7.2 5.6C7.2 5.16 7.04333 4.78333 6.73 4.47C6.41667 4.15667 6.04 4 5.6 4C5.16 4 4.78333 4.15667 4.47 4.47C4.15667 4.78333 4 5.16 4 5.6C4 6.04 4.15667 6.41667 4.47 6.73C4.78333 7.04333 5.16 7.2 5.6 7.2Z" fill="#353535"/>
</svg>
