<svg width="18" height="18" viewBox="0 0 18 18" fill="none" xmlns="http://www.w3.org/2000/svg">
<path d="M16.4401 18L10.2243 11.784C9.73817 12.1605 9.17753 12.4592 8.5424 12.6801C7.90727 12.9009 7.22836 13.0113 6.50567 13.0113C4.6898 13.0113 3.15155 12.381 1.89093 11.1204C0.630311 9.85962 0 8.32138 0 6.50567C0 4.68996 0.630311 3.15172 1.89093 1.89093C3.15155 0.63031 4.6898 0 6.50567 0C8.32138 0 9.85954 0.63031 11.1202 1.89093C12.3809 3.15172 13.0113 4.68996 13.0113 6.50567C13.0113 7.23228 12.9009 7.91119 12.6801 8.5424C12.459 9.17361 12.1603 9.73033 11.784 10.2126L18.0056 16.4401L16.4401 18ZM6.50567 10.7815C7.69556 10.7815 8.70567 10.3664 9.53601 9.53601C10.3664 8.70584 10.7815 7.69572 10.7815 6.50567C10.7815 5.31562 10.3664 4.3055 9.53601 3.47533C8.70567 2.64499 7.69556 2.22982 6.50567 2.22982C5.31562 2.22982 4.30542 2.64499 3.47508 3.47533C2.6449 4.3055 2.22982 5.31562 2.22982 6.50567C2.22982 7.69572 2.6449 8.70584 3.47508 9.53601C4.30542 10.3664 5.31562 10.7815 6.50567 10.7815Z" fill="#353535"/>
</svg>
