<svg width="17" height="18" viewBox="0 0 17 18" fill="none" xmlns="http://www.w3.org/2000/svg">
<path d="M0 18V2C0 1.45 0.195833 0.979167 0.5875 0.5875C0.979167 0.195833 1.45 0 2 0H8C8.55 0 9.02083 0.195833 9.4125 0.5875C9.80417 0.979167 10 1.45 10 2V9H11C11.55 9 12.0208 9.19583 12.4125 9.5875C12.8042 9.97917 13 10.45 13 11V15.5C13 15.7833 13.0958 16.0208 13.2875 16.2125C13.4792 16.4042 13.7167 16.5 14 16.5C14.2833 16.5 14.5208 16.4042 14.7125 16.2125C14.9042 16.0208 15 15.7833 15 15.5V8.3C14.85 8.38333 14.6917 8.4375 14.525 8.4625C14.3583 8.4875 14.1833 8.5 14 8.5C13.3 8.5 12.7083 8.25833 12.225 7.775C11.7417 7.29167 11.5 6.7 11.5 6C11.5 5.46667 11.6458 4.9875 11.9375 4.5625C12.2292 4.1375 12.6167 3.83333 13.1 3.65L11 1.55L12.05 0.5L15.75 4.1C16 4.35 16.1875 4.64167 16.3125 4.975C16.4375 5.30833 16.5 5.65 16.5 6V15.5C16.5 16.2 16.2583 16.7917 15.775 17.275C15.2917 17.7583 14.7 18 14 18C13.3 18 12.7083 17.7583 12.225 17.275C11.7417 16.7917 11.5 16.2 11.5 15.5V10.5H10V18H0ZM2 7H8V2H2V7ZM14 7C14.2833 7 14.5208 6.90417 14.7125 6.7125C14.9042 6.52083 15 6.28333 15 6C15 5.71667 14.9042 5.47917 14.7125 5.2875C14.5208 5.09583 14.2833 5 14 5C13.7167 5 13.4792 5.09583 13.2875 5.2875C13.0958 5.47917 13 5.71667 13 6C13 6.28333 13.0958 6.52083 13.2875 6.7125C13.4792 6.90417 13.7167 7 14 7ZM2 16H8V9H2V16Z" fill="#353535"/>
</svg>
