<svg width="25" height="18" viewBox="0 0 25 18" fill="none" xmlns="http://www.w3.org/2000/svg">
<path d="M5.625 18C4.6875 18 3.89062 17.6719 3.23437 17.0156C2.57812 16.3594 2.25 15.5625 2.25 14.625H0V2.25C0 1.63125 0.220313 1.10156 0.660937 0.660938C1.10156 0.220313 1.63125 0 2.25 0H18V4.5H21.375L24.75 9V14.625H22.5C22.5 15.5625 22.1719 16.3594 21.5156 17.0156C20.8594 17.6719 20.0625 18 19.125 18C18.1875 18 17.3906 17.6719 16.7344 17.0156C16.0781 16.3594 15.75 15.5625 15.75 14.625H9C9 15.5625 8.67187 16.3594 8.01562 17.0156C7.35937 17.6719 6.5625 18 5.625 18ZM5.625 15.75C5.94375 15.75 6.21094 15.6422 6.42656 15.4266C6.64219 15.2109 6.75 14.9438 6.75 14.625C6.75 14.3062 6.64219 14.0391 6.42656 13.8234C6.21094 13.6078 5.94375 13.5 5.625 13.5C5.30625 13.5 5.03906 13.6078 4.82344 13.8234C4.60781 14.0391 4.5 14.3062 4.5 14.625C4.5 14.9438 4.60781 15.2109 4.82344 15.4266C5.03906 15.6422 5.30625 15.75 5.625 15.75ZM2.25 12.375H3.15C3.46875 12.0375 3.83437 11.7656 4.24687 11.5594C4.65937 11.3531 5.11875 11.25 5.625 11.25C6.13125 11.25 6.59062 11.3531 7.00312 11.5594C7.41562 11.7656 7.78125 12.0375 8.1 12.375H15.75V2.25H2.25V12.375ZM19.125 15.75C19.4437 15.75 19.7109 15.6422 19.9266 15.4266C20.1422 15.2109 20.25 14.9438 20.25 14.625C20.25 14.3062 20.1422 14.0391 19.9266 13.8234C19.7109 13.6078 19.4437 13.5 19.125 13.5C18.8062 13.5 18.5391 13.6078 18.3234 13.8234C18.1078 14.0391 18 14.3062 18 14.625C18 14.9438 18.1078 15.2109 18.3234 15.4266C18.5391 15.6422 18.8062 15.75 19.125 15.75ZM18 10.125H22.7812L20.25 6.75H18V10.125Z" fill="#353535"/>
</svg>
